<?xml version="1.0" encoding="UTF-8"?>
<svg width="11px" height="11px" viewBox="0 0 11 11" version="1.1" xmlns="http://www.w3.org/2000/svg" xmlns:xlink="http://www.w3.org/1999/xlink">
    <title>地图</title>
    <g id="米雪冰城" stroke="none" stroke-width="1" fill="none" fill-rule="evenodd">
        <g id="门店菜单" transform="translate(-16.000000, -114.000000)" fill-rule="nonzero">
            <g id="地图" transform="translate(16.000000, 114.000000)">
                <rect id="矩形" fill="#000000" opacity="0" x="0" y="0" width="11" height="11"></rect>
                <path d="M5.5,2.68529412 C4.43235294,2.68529412 3.55882353,3.55882353 3.55882353,4.62647059 C3.55882353,5.69411764 4.43235294,6.56764706 5.5,6.56764706 C6.56764706,6.56764706 7.44117647,5.69411764 7.44117647,4.62647059 C7.44117647,3.55882353 6.56764706,2.68529412 5.5,2.68529412 Z M5.5,5.92058823 C4.78823529,5.92058823 4.20588236,5.33823529 4.20588236,4.62647059 C4.20588236,3.91470589 4.7882353,3.33235294 5.5,3.33235294 C6.2117647,3.33235294 6.79411764,3.91470589 6.79411764,4.62647059 C6.79411764,5.33823529 6.2117647,5.92058823 5.5,5.92058823 Z" id="形状" fill="#2C2C2C"></path>
                <path d="M5.5,0.420588233 C3.17058823,0.420588233 1.29411764,2.29705882 1.29411764,4.62647059 C1.29411764,8.37941177 5.5,10.7735294 5.5,10.7735294 C5.5,10.7735294 9.70588236,8.37941177 9.70588236,4.62647059 C9.70588236,2.29705882 7.82941177,0.420588233 5.5,0.420588233 Z M5.5,9.99705882 C4.56176471,9.38235294 1.94117647,7.37647059 1.94117647,4.62647059 C1.94117647,2.65294118 3.52647059,1.06764706 5.5,1.06764706 C7.47352941,1.06764706 9.05882353,2.65294118 9.05882353,4.62647059 C9.05882353,7.37647059 6.4382353,9.38235294 5.5,9.99705882 Z" id="形状" fill="#2C2C2C"></path>
            </g>
        </g>
    </g>
</svg>