<?xml version="1.0" encoding="UTF-8"?>
<svg width="10px" height="10px" viewBox="0 0 10 10" version="1.1" xmlns="http://www.w3.org/2000/svg" xmlns:xlink="http://www.w3.org/1999/xlink">
    <title>形状</title>
    <g id="米雪冰城" stroke="none" stroke-width="1" fill="none" fill-rule="evenodd">
        <g id="门店菜单" transform="translate(-342.000000, -667.000000)" fill="#FFFFFF" fill-rule="nonzero" stroke="#FFFFFF">
            <g id="真鲜果茶系列" transform="translate(90.000000, 573.000000)">
                <g id="摩卡摇摇奶昔备份" transform="translate(1.000000, 28.000000)">
                    <g id="add" transform="translate(249.000000, 64.000000)">
                        <path d="M11.6666664,7.29166666 C11.8277494,7.29166666 11.958333,7.16108304 11.958333,7 C11.958333,6.83891696 11.8277494,6.70833334 11.6666664,6.70833334 L2.33333333,6.70833334 C2.17225028,6.70833334 2.04166666,6.83891696 2.04166666,7 C2.04166666,7.16108304 2.17225028,7.29166666 2.33333333,7.29166666 L11.6666664,7.29166666 Z M6.7083332,11.6666667 C6.7083332,11.8277497 6.83891681,11.9583333 6.99999985,11.9583333 C7.16108289,11.9583333 7.2916665,11.8277497 7.2916665,11.6666667 L7.2916665,2.33333334 C7.2916665,2.17225028 7.16108289,2.04166666 6.99999985,2.04166666 C6.83891681,2.04166666 6.7083332,2.17225028 6.7083332,2.33333334 L6.7083332,11.6666667 Z" id="形状"></path>
                    </g>
                </g>
            </g>
        </g>
    </g>
</svg>