<?xml version="1.0" encoding="UTF-8"?>
<svg width="25px" height="25px" viewBox="0 0 25 25" version="1.1" xmlns="http://www.w3.org/2000/svg" xmlns:xlink="http://www.w3.org/1999/xlink">
    <title>搜索</title>
    <g id="米雪冰城" stroke="none" stroke-width="1" fill="none" fill-rule="evenodd">
        <g id="门店菜单" transform="translate(-43.000000, -37.000000)" fill-rule="nonzero">
            <g id="导航栏" transform="translate(8.000000, 31.000000)">
                <g id="搜索框" transform="translate(30.000000, 0.000000)">
                    <g id="搜索" transform="translate(5.000000, 6.000000)">
                        <rect id="矩形" fill="#000000" opacity="0" x="0" y="0" width="25" height="25"></rect>
                        <path d="M11.4583333,18.75 C7.39583333,18.75 4.16666667,15.5208333 4.16666667,11.4583333 C4.16666667,7.39583333 7.39583335,4.16666667 11.4583333,4.16666667 C15.5208333,4.16666667 18.75,7.39583335 18.75,11.4583333 C18.75,15.5208333 15.5208333,18.75 11.4583333,18.75 Z M11.4583333,16.6666667 C14.375,16.6666667 16.6666667,14.375 16.6666667,11.4583333 C16.6666667,8.54166665 14.375,6.25 11.4583333,6.25 C8.54166665,6.25 6.25,8.54166667 6.25,11.4583333 C6.25,14.375 8.54166667,16.6666667 11.4583333,16.6666667 Z M17.6041667,16.6666667 L20.5208333,19.5833333 L19.0625,21.0416667 L16.1458333,18.125 L17.6041667,16.6666667 Z" id="形状" fill="#b3b3b4"></path>
                    </g>
                </g>
            </g>
        </g>
    </g>
</svg>